<?xml version="1.0" encoding="UTF-8" standalone="no"?>
<!DOCTYPE svg PUBLIC "-//W3C//DTD SVG 1.1//EN" "http://www.w3.org/Graphics/SVG/1.1/DTD/svg11.dtd">
<svg xmlns="http://www.w3.org/2000/svg" version="1.1" viewBox="0.00 0.00 1000.00 1000.00">
<path fill="#f7758d" d="
  M 497.52 0.00
  L 502.27 0.00
  Q 505.46 6.39 508.91 12.66
  Q 520.25 33.27 534.95 61.07
  C 536.22 63.48 537.69 65.66 538.91 68.09
  Q 546.53 83.31 554.26 97.23
  C 557.59 103.22 560.67 109.63 564.17 115.63
  C 567.93 122.07 571.23 128.77 574.57 135.30
  C 578.91 143.79 583.87 152.23 588.41 160.93
  C 594.62 172.82 600.96 184.17 607.00 195.99
  C 607.96 197.86 609.22 199.56 610.19 201.46
  C 616.43 213.67 623.07 225.57 629.48 237.65
  Q 632.50 243.34 636.03 249.68
  C 640.59 257.88 644.42 266.18 649.03 274.40
  Q 655.76 286.42 661.79 297.81
  Q 662.94 300.00 664.10 302.18
  Q 676.64 325.73 689.36 349.76
  C 693.58 357.71 698.08 365.46 702.19 373.52
  C 704.18 377.43 706.54 381.14 708.45 384.96
  Q 714.11 396.33 720.40 407.49
  Q 723.88 413.67 727.07 419.81
  Q 730.26 425.95 733.58 432.18
  Q 735.40 435.60 737.22 439.02
  Q 742.74 449.33 747.68 458.40
  Q 752.67 467.54 757.72 477.31
  C 762.84 487.22 768.40 496.69 773.43 506.75
  C 774.87 509.63 776.80 512.40 778.27 515.34
  Q 783.24 525.33 787.84 533.49
  C 793.94 544.30 798.93 554.56 804.69 565.07
  C 808.94 572.84 813.02 580.68 817.28 588.35
  C 822.38 597.55 826.81 606.56 831.57 615.29
  Q 846.85 643.31 857.45 663.61
  C 860.54 669.51 864.03 675.26 866.97 681.21
  C 867.67 682.62 868.77 683.72 869.80 684.90
  A 1.58 1.58 0.0 0 1 869.78 687.02
  C 869.01 687.85 868.23 688.54 867.57 689.49
  Q 848.82 716.73 836.49 735.21
  Q 827.10 749.29 817.47 763.18
  Q 808.02 776.82 797.90 791.98
  C 790.47 803.13 782.64 814.05 775.20 825.37
  A 2.56 2.55 -41.7 0 1 770.78 825.12
  Q 767.22 818.04 762.92 810.23
  C 755.81 797.29 749.22 784.08 742.21 771.83
  Q 740.88 769.49 742.35 766.60
  Q 751.49 748.69 761.48 728.18
  C 766.79 717.29 772.07 707.03 777.04 696.21
  Q 779.75 690.31 782.85 684.53
  Q 783.72 682.92 783.03 681.35
  C 781.09 676.98 778.89 672.65 777.19 668.07
  C 775.67 663.98 773.56 660.14 771.87 656.08
  Q 769.58 650.58 766.32 643.27
  Q 755.97 620.06 746.53 597.89
  Q 744.56 593.28 742.20 588.31
  C 740.23 584.15 738.62 579.91 736.75 575.71
  Q 728.85 557.91 720.47 538.41
  C 717.76 532.12 714.90 526.33 712.28 520.01
  Q 704.94 502.26 689.14 467.08
  C 687.03 462.38 684.70 456.02 682.06 450.52
  Q 681.10 448.50 680.21 446.46
  Q 673.81 431.79 667.54 417.36
  Q 663.05 407.03 658.20 396.13
  Q 655.91 390.97 653.82 385.91
  C 651.95 381.38 649.63 376.94 647.75 372.34
  C 645.25 366.24 642.31 360.13 639.67 353.91
  C 633.02 338.25 625.89 322.18 618.87 306.40
  Q 615.25 298.27 611.58 289.40
  C 608.42 281.74 604.84 274.27 601.61 266.82
  Q 592.52 245.92 583.50 225.00
  C 580.55 218.16 577.28 211.53 574.30 204.60
  Q 561.19 174.07 544.51 136.04
  C 536.42 117.59 528.28 99.42 520.40 81.02
  Q 513.85 65.72 506.08 48.45
  Q 504.04 43.93 502.20 38.97
  Q 501.48 37.06 499.64 37.11
  A 2.09 2.08 10.6 0 0 497.78 38.38
  C 496.05 42.53 494.50 46.69 492.61 50.82
  Q 486.35 64.43 479.92 79.57
  Q 475.92 89.02 471.98 97.91
  Q 466.37 110.57 460.94 122.75
  Q 457.83 129.76 455.02 136.34
  C 445.84 157.84 435.57 180.42 426.14 202.80
  C 421.98 212.67 417.40 222.16 413.05 232.26
  C 406.15 248.26 399.33 264.44 392.03 280.33
  C 388.85 287.25 386.09 294.42 383.05 301.35
  Q 366.76 338.48 351.07 373.93
  Q 347.09 382.91 343.97 390.24
  Q 337.85 404.62 332.05 417.83
  C 327.34 428.57 322.54 438.82 318.23 449.30
  Q 316.63 453.19 314.68 457.18
  C 313.71 459.18 313.12 461.30 312.22 463.31
  Q 299.73 491.11 287.54 519.78
  Q 286.96 521.15 286.37 522.45
  C 279.85 536.85 273.44 551.77 267.09 566.47
  C 265.07 571.17 262.63 575.86 260.79 580.74
  Q 259.70 583.61 258.36 586.51
  Q 252.33 599.58 246.48 613.25
  Q 237.53 634.16 228.15 655.34
  C 226.14 659.88 223.95 664.46 222.20 668.91
  Q 219.90 674.74 216.77 680.98
  A 3.66 3.64 45.2 0 0 216.77 684.25
  C 219.34 689.33 221.91 694.33 224.26 699.69
  Q 226.71 705.31 229.42 710.57
  Q 236.75 724.77 243.41 738.65
  C 248.01 748.25 253.01 757.81 257.57 767.21
  C 258.58 769.31 257.89 771.47 256.77 773.35
  Q 251.19 782.75 245.50 793.90
  C 240.17 804.35 234.38 814.36 228.98 825.09
  A 2.61 2.61 0.0 0 1 224.46 825.33
  Q 219.02 816.95 213.75 809.43
  C 202.91 793.98 192.45 777.99 181.89 762.61
  C 178.27 757.34 174.86 752.65 171.07 746.91
  Q 157.18 725.86 131.81 689.13
  C 131.23 688.29 130.55 687.73 129.89 686.98
  A 1.54 1.54 0.0 0 1 129.88 684.93
  C 130.96 683.72 132.07 682.60 132.79 681.14
  C 135.58 675.49 138.87 670.07 141.74 664.60
  Q 153.50 642.12 167.15 617.21
  C 171.53 609.20 177.15 597.97 182.49 588.40
  C 186.88 580.53 190.82 572.50 195.37 564.42
  Q 199.99 556.21 203.95 548.04
  C 207.22 541.28 211.40 534.95 214.78 528.26
  C 219.77 518.36 225.09 509.05 230.04 499.49
  C 233.06 493.65 236.39 488.16 239.30 482.50
  Q 245.37 470.71 253.34 455.92
  Q 257.94 447.38 262.20 439.61
  Q 266.83 431.16 270.60 423.73
  Q 274.57 415.91 279.01 408.02
  Q 285.78 395.99 292.23 383.12
  C 293.78 380.01 295.76 377.10 297.31 374.02
  Q 300.20 368.27 303.52 362.28
  C 309.66 351.25 315.29 340.19 321.38 328.91
  Q 327.11 318.28 331.51 309.96
  C 335.29 302.80 339.36 295.62 343.12 288.25
  Q 345.35 283.87 347.68 279.76
  C 354.16 268.29 360.07 255.72 366.87 243.91
  C 370.20 238.14 373.11 232.04 376.32 226.26
  Q 383.10 214.03 389.33 201.78
  C 390.60 199.28 392.22 196.98 393.53 194.42
  Q 398.61 184.49 403.76 175.08
  C 408.39 166.61 412.78 157.91 417.41 149.59
  C 422.93 139.67 427.75 130.03 432.82 120.54
  Q 434.43 117.53 436.20 114.45
  C 439.75 108.32 442.77 101.88 446.24 95.69
  C 452.60 84.33 458.14 72.88 464.44 61.63
  C 470.01 51.68 475.77 40.05 480.86 30.90
  Q 485.54 22.48 489.74 14.75
  Q 493.73 7.39 497.52 0.00
  Z"
/>
<path fill="#f7758d" d="
  M 836.66 1000.00
  L 760.88 1000.00
  Q 759.86 999.25 759.19 997.41
  Q 758.21 994.74 758.17 994.66
  Q 701.00 864.01 643.85 733.36
  Q 636.46 716.45 629.53 700.60
  Q 623.14 685.96 616.50 670.69
  Q 599.31 631.09 578.76 584.23
  Q 564.42 551.54 550.02 518.73
  Q 548.09 514.34 546.08 509.74
  Q 523.12 457.16 501.42 407.27
  A 1.77 1.74 -87.6 0 0 500.65 406.42
  Q 499.03 405.55 498.29 407.24
  Q 478.21 453.36 457.63 500.19
  Q 453.65 509.24 450.02 517.87
  Q 446.54 526.15 442.37 535.55
  Q 414.69 597.89 382.32 672.79
  Q 381.05 675.75 379.79 678.52
  C 367.90 704.83 356.44 731.84 345.23 757.48
  Q 292.13 878.87 239.10 1000.00
  L 162.78 1000.00
  Q 161.72 999.45 161.92 999.08
  Q 182.99 959.74 204.09 920.30
  Q 229.60 872.64 255.02 825.38
  Q 262.54 811.39 270.03 797.38
  Q 304.16 733.49 340.96 664.65
  Q 343.74 659.45 346.51 654.26
  Q 396.11 561.49 448.37 463.68
  Q 457.82 445.98 468.52 426.30
  Q 481.00 403.33 493.20 380.19
  Q 495.55 375.75 498.23 371.30
  A 1.76 1.76 0.0 0 1 500.60 370.67
  Q 501.50 371.18 502.06 372.18
  Q 507.62 382.14 512.67 391.65
  Q 528.76 421.97 543.57 449.44
  C 562.56 484.67 581.06 519.52 599.04 553.22
  Q 601.61 558.02 604.25 562.91
  Q 624.98 601.38 648.39 645.52
  Q 654.26 656.60 659.41 666.05
  Q 664.79 675.92 669.89 685.43
  Q 727.59 793.08 783.59 897.92
  Q 786.13 902.68 788.69 907.44
  Q 813.37 953.40 837.76 998.74
  Q 838.02 999.22 837.60 999.55
  Q 837.28 999.80 836.66 1000.00
  Z"
/>
<path fill="#f7758d" d="
  M 370.17 1000.00
  L 343.70 1000.00
  L 296.92 931.27
  A 4.04 4.03 39.9 0 1 296.57 927.38
  L 313.70 888.48
  Q 314.38 886.93 315.89 887.70
  Q 316.43 887.97 317.03 889.18
  Q 335.65 926.79 353.25 962.50
  C 359.23 974.64 365.10 986.80 371.18 998.85
  Q 371.41 999.32 370.95 999.57
  L 370.17 1000.00
  Z"
/>
<path fill="#f7758d" d="
  M 655.96 1000.00
  L 629.46 1000.00
  L 628.67 999.59
  Q 628.18 999.33 628.43 998.83
  C 634.53 986.77 640.40 974.60 646.38 962.47
  Q 663.85 927.03 682.56 889.06
  Q 682.96 888.26 683.70 887.82
  Q 685.23 886.93 685.94 888.54
  L 703.01 927.32
  A 4.18 4.17 50.1 0 1 702.65 931.34
  L 655.96 1000.00
  Z"
/>
</svg>
