<?xml version="1.0" encoding="UTF-8"?>
<svg xmlns="http://www.w3.org/2000/svg" viewBox="0 0 698 157.83">
  <defs>
    <style>
      .cls-1 {
        fill: #048c3c;
      }

      .cls-1, .cls-2, .cls-3, .cls-4 {
        stroke-width: 0px;
      }

      .cls-5 {
        isolation: isolate;
      }

      .cls-2 {
        fill: #8ccf75;
        mix-blend-mode: multiply;
        opacity: .3;
      }

      .cls-3 {
        fill: #f44c5c;
      }

      .cls-4 {
        fill: #2d363b;
      }
    </style>
  </defs>
  <g class="cls-5">
    <g id="Layer_2" data-name="Layer 2">
      <g id="Layer_1-2" data-name="Layer 1">
        <g>
          <g>
            <path class="cls-1" d="m140.77,62.39v50.59c0,3.56-1.9,6.85-4.99,8.64l-60.41,34.88c-1.54.89-3.26,1.34-4.98,1.34s-3.44-.45-4.98-1.34L4.99,121.61c-3.09-1.79-4.99-5.07-4.99-8.64v-50.59c0-7.68,8.31-12.48,14.97-8.65l50.44,29.12c1.54.89,3.26,1.34,4.98,1.34s3.44-.45,4.98-1.34l50.44-29.12c6.66-3.83,14.97.97,14.97,8.65Z"/>
            <path class="cls-3" d="m131.33,42.91l-50.68,29.26c-6.35,3.67-14.18,3.67-20.53,0L9.44,42.91c-4.2-2.42-4.2-8.48,0-10.9L60.12,2.75c6.35-3.67,14.18-3.67,20.53,0l50.68,29.26c4.2,2.42,4.2,8.48,0,10.9Z"/>
            <path class="cls-2" d="m140.77,62.39v50.59c0,3.56-1.9,6.85-4.99,8.64l-60.41,34.88c-1.54.89-3.26,1.34-4.98,1.34v-73.62c1.72,0,3.44-.45,4.98-1.34l50.44-29.12c6.66-3.83,14.97.97,14.97,8.65Z"/>
            <g>
              <path class="cls-4" d="m27.09,35.44s.36,3.58-.22,4.59-1.88,1.35-2.89.77-1.35-1.88-.77-2.89,3.88-2.47,3.88-2.47Z"/>
              <path class="cls-4" d="m41.15,43.2s.41,3.58-.17,4.59c-.57,1.02-1.86,1.38-2.88.8s-1.38-1.86-.8-2.88c.57-1.02,3.85-2.52,3.85-2.52Z"/>
              <path class="cls-4" d="m70.17,60.05s2.11,2.92,2.11,4.08-.95,2.11-2.11,2.11-2.11-.95-2.11-2.11c0-1.17,2.11-4.08,2.11-4.08Z"/>
              <path class="cls-4" d="m70.17,42.38s2.11,2.92,2.11,4.08-.95,2.11-2.11,2.11-2.11-.95-2.11-2.11c0-1.17,2.11-4.08,2.11-4.08Z"/>
              <path class="cls-4" d="m70.17,6.76s2.11,2.92,2.11,4.08-.95,2.11-2.11,2.11c-1.17,0-2.11-.95-2.11-2.11,0-1.17,2.11-4.08,2.11-4.08Z"/>
              <path class="cls-4" d="m113.18,35.49s-.25,3.59.37,4.58,1.92,1.29,2.91.67c.99-.62,1.29-1.92.67-2.91s-3.96-2.34-3.96-2.34Z"/>
              <path class="cls-4" d="m99.22,43.19s-.44,3.57.13,4.6c.57,1.02,1.85,1.39,2.87.83s1.39-1.85.83-2.87-3.83-2.55-3.83-2.55Z"/>
              <path class="cls-4" d="m84.72,50.98s-1.09,3.43-.72,4.54,1.56,1.71,2.67,1.34,1.71-1.56,1.34-2.67-3.29-3.21-3.29-3.21Z"/>
              <path class="cls-4" d="m100.61,27.54s-.25,3.59.37,4.58c.62.99,1.92,1.29,2.91.67s1.29-1.92.67-2.91c-.62-.99-3.96-2.34-3.96-2.34Z"/>
              <path class="cls-4" d="m83.92,33.77s-.44,3.57.13,4.6c.57,1.02,1.85,1.39,2.87.83s1.39-1.85.83-2.87c-.57-1.02-3.83-2.55-3.83-2.55Z"/>
              <path class="cls-4" d="m39.86,27.54s.25,3.59-.37,4.58-1.92,1.29-2.91.67-1.29-1.92-.67-2.91c.62-.99,3.96-2.34,3.96-2.34Z"/>
              <path class="cls-4" d="m70.17,24.6s2.11,2.92,2.11,4.08-.95,2.11-2.11,2.11-2.11-.95-2.11-2.11c0-1.17,2.11-4.08,2.11-4.08Z"/>
              <path class="cls-4" d="m83.9,18.04s-.44,3.57.13,4.6,1.85,1.39,2.87.83,1.39-1.85.83-2.87c-.57-1.02-3.83-2.55-3.83-2.55Z"/>
              <path class="cls-4" d="m55.02,50.98s1.09,3.43.72,4.54-1.56,1.71-2.67,1.34-1.71-1.56-1.34-2.67c.37-1.11,3.29-3.21,3.29-3.21Z"/>
              <path class="cls-4" d="m55.82,33.77s.44,3.57-.13,4.6c-.57,1.02-1.85,1.39-2.87.83s-1.39-1.85-.83-2.87,3.83-2.55,3.83-2.55Z"/>
              <path class="cls-4" d="m55.84,18.04s.44,3.57-.13,4.6c-.57,1.02-1.85,1.39-2.87.83s-1.39-1.85-.83-2.87,3.83-2.55,3.83-2.55Z"/>
            </g>
          </g>
          <g>
            <path class="cls-3" d="m230.45,55.94c6.28,0,11.37,2.1,15.29,6.31,3.84,4.06,5.76,9.6,5.76,16.62v34.01h-16.62v-32.57c0-2.88-.68-5.11-2.05-6.7-1.37-1.59-3.34-2.38-5.93-2.38-2.73,0-4.86.92-6.37,2.77-1.51,1.85-2.27,4.4-2.27,7.65v31.24h-16.62v-32.57c0-2.88-.68-5.11-2.05-6.7-1.37-1.59-3.34-2.38-5.93-2.38-2.73,0-4.86.92-6.37,2.77-1.51,1.85-2.27,4.4-2.27,7.65v31.24h-16.62v-55.4h16.62v5.1c3.03-4.43,7.98-6.65,14.85-6.65,6.43,0,11.26,2.44,14.51,7.31,3.4-4.87,8.75-7.31,16.06-7.31Z"/>
            <path class="cls-3" d="m317.09,91.84h-39.33c1.85,5.17,6.28,7.76,13.3,7.76,4.5,0,8.05-1.4,10.64-4.21l13.29,7.64c-5.39,7.61-13.44,11.41-24.15,11.41-9.23,0-16.69-2.77-22.38-8.31-5.54-5.54-8.31-12.52-8.31-20.94s2.73-15.22,8.2-20.83c5.54-5.61,12.63-8.42,21.27-8.42,8.05,0,14.74,2.81,20.05,8.42,5.39,5.47,8.09,12.41,8.09,20.83,0,2.36-.22,4.58-.66,6.65Zm-39.66-12.41h23.82c-1.63-5.83-5.54-8.75-11.74-8.75s-10.45,2.92-12.08,8.75Z"/>
            <path class="cls-3" d="m343.79,112.89h-16.62V32.01h16.62v80.88Z"/>
            <path class="cls-3" d="m403.4,106.02c-5.62,5.61-12.56,8.42-20.83,8.42s-15.22-2.81-20.83-8.42c-5.69-5.69-8.53-12.63-8.53-20.83s2.84-15.03,8.53-20.72c5.69-5.69,12.63-8.53,20.83-8.53s15.14,2.84,20.83,8.53c5.69,5.69,8.53,12.59,8.53,20.72s-2.85,15.14-8.53,20.83Zm-33.57-20.83c0,3.84,1.22,6.98,3.66,9.42s5.47,3.66,9.09,3.66,6.65-1.22,9.09-3.66,3.66-5.58,3.66-9.42-1.22-6.98-3.66-9.42-5.47-3.66-9.09-3.66-6.65,1.22-9.09,3.66-3.66,5.58-3.66,9.42Z"/>
            <path class="cls-3" d="m453.81,55.94c5.98,0,10.89,2.03,14.74,6.09,3.99,4.14,5.98,9.75,5.98,16.84v34.01h-16.62v-31.58c0-3.17-.89-5.65-2.66-7.42-1.77-1.77-4.1-2.66-6.98-2.66-3.25,0-5.78.98-7.59,2.94-1.81,1.96-2.71,4.78-2.71,8.48v30.25h-16.62v-55.4h16.62v5.21c3.32-4.5,8.6-6.76,15.84-6.76Z"/>
            <path class="cls-1" d="m501.67,73.67c0,.96.78,1.79,2.33,2.49,1.55.7,3.99,1.5,7.31,2.38,11.82,2.59,17.69,8.5,17.62,17.73,0,5.98-2.22,10.53-6.65,13.63-4.51,3.03-9.97,4.54-16.4,4.54-11.67,0-19.61-4.39-23.82-13.18l14.4-8.2c1.48,4.36,4.62,6.54,9.42,6.54,3.99,0,5.98-1.14,5.98-3.43,0-1.62-3.21-3.25-9.64-4.88-2.36-.66-4.39-1.35-6.09-2.05-1.7-.7-3.53-1.7-5.48-2.99-1.96-1.29-3.45-2.97-4.49-5.04-1.04-2.07-1.55-4.43-1.55-7.09,0-5.69,2.07-10.15,6.21-13.41,4.14-3.18,9.31-4.76,15.51-4.76,9.68,0,16.88,3.95,21.6,11.85l-14.18,7.65c-1.77-3.25-4.25-4.88-7.42-4.88s-4.65,1.04-4.65,3.1Z"/>
            <path class="cls-1" d="m553.86,112.89h-16.62V32.01h16.62v80.88Z"/>
            <path class="cls-1" d="m606.26,62.7v-5.21h16.62v55.4h-16.62v-5.21c-3.84,4.51-9.34,6.76-16.51,6.76s-13.55-2.81-18.72-8.42c-5.17-5.61-7.75-12.56-7.75-20.83s2.58-15.1,7.75-20.72c5.24-5.69,11.48-8.53,18.72-8.53s12.67,2.25,16.51,6.76Zm-26.37,22.49c0,4.14,1.22,7.42,3.66,9.86s5.61,3.66,9.53,3.66,7.09-1.22,9.53-3.66,3.66-5.72,3.66-9.86-1.22-7.42-3.66-9.86-5.61-3.66-9.53-3.66-7.09,1.22-9.53,3.66-3.66,5.73-3.66,9.86Z"/>
            <path class="cls-1" d="m668.2,55.94c7.24,0,13.48,2.84,18.72,8.53,5.17,5.61,7.75,12.52,7.75,20.72s-2.59,15.22-7.75,20.83c-5.17,5.61-11.41,8.42-18.72,8.42s-12.67-2.25-16.51-6.76v5.21h-16.62V35.34h16.62v27.37c3.84-4.5,9.34-6.76,16.51-6.76Zm-12.85,39.11c2.51,2.44,5.69,3.66,9.53,3.66s6.98-1.22,9.42-3.66c2.51-2.44,3.77-5.72,3.77-9.86s-1.26-7.42-3.77-9.86c-2.44-2.44-5.58-3.66-9.42-3.66s-7.02,1.22-9.53,3.66c-2.44,2.44-3.66,5.73-3.66,9.86s1.22,7.42,3.66,9.86Z"/>
          </g>
        </g>
      </g>
    </g>
  </g>
</svg>